<svg width="256" height="135" viewBox="0 0 256 135" fill="none" xmlns="http://www.w3.org/2000/svg">
<path d="M156.352 90C155.808 88.56 155.296 87.152 154.816 85.776C154.336 84.368 153.84 82.944 153.328 81.504H138.256L135.232 90H130.384C131.664 86.48 132.864 83.232 133.984 80.256C135.104 77.248 136.192 74.4 137.248 71.712C138.336 69.024 139.408 66.464 140.464 64.032C141.52 61.568 142.624 59.136 143.776 56.736H148.048C149.2 59.136 150.304 61.568 151.36 64.032C152.416 66.464 153.472 69.024 154.528 71.712C155.616 74.4 156.72 77.248 157.84 80.256C158.96 83.232 160.16 86.48 161.44 90H156.352ZM151.984 77.664C150.96 74.88 149.936 72.192 148.912 69.6C147.92 66.976 146.88 64.464 145.792 62.064C144.672 64.464 143.6 66.976 142.576 69.6C141.584 72.192 140.592 74.88 139.6 77.664H151.984Z" fill="#FFAA00"/>
<path d="M174.884 64.512C175.268 64.512 175.7 64.544 176.18 64.608C176.692 64.64 177.188 64.704 177.668 64.8C178.148 64.864 178.58 64.944 178.964 65.04C179.38 65.104 179.684 65.168 179.876 65.232L179.108 69.12C178.756 68.992 178.164 68.848 177.332 68.688C176.532 68.496 175.492 68.4 174.212 68.4C173.38 68.4 172.548 68.496 171.716 68.688C170.916 68.848 170.388 68.96 170.132 69.024V90H165.668V66.096C166.724 65.712 168.036 65.36 169.604 65.04C171.172 64.688 172.932 64.512 174.884 64.512Z" fill="#FFAA00"/>
<path d="M199.832 87.504C199.448 87.76 198.696 88.096 197.576 88.512C196.488 88.896 195.208 89.088 193.736 89.088C192.232 89.088 190.808 88.848 189.464 88.368C188.152 87.888 187 87.152 186.008 86.16C185.016 85.136 184.232 83.872 183.656 82.368C183.08 80.864 182.792 79.072 182.792 76.992C182.792 75.168 183.064 73.504 183.608 72C184.152 70.464 184.936 69.152 185.96 68.064C187.016 66.944 188.296 66.08 189.8 65.472C191.304 64.832 193 64.512 194.888 64.512C196.968 64.512 198.776 64.672 200.312 64.992C201.88 65.28 203.192 65.552 204.248 65.808V88.08C204.248 91.92 203.256 94.704 201.272 96.432C199.288 98.16 196.28 99.024 192.248 99.024C190.68 99.024 189.192 98.896 187.784 98.64C186.408 98.384 185.208 98.08 184.184 97.728L185 93.84C185.896 94.192 186.984 94.496 188.264 94.752C189.576 95.04 190.936 95.184 192.344 95.184C195 95.184 196.904 94.656 198.056 93.6C199.24 92.544 199.832 90.864 199.832 88.56V87.504ZM199.784 68.976C199.336 68.848 198.728 68.736 197.96 68.64C197.224 68.512 196.216 68.448 194.936 68.448C192.536 68.448 190.68 69.232 189.368 70.8C188.088 72.368 187.448 74.448 187.448 77.04C187.448 78.48 187.624 79.712 187.976 80.736C188.36 81.76 188.856 82.608 189.464 83.28C190.104 83.952 190.824 84.448 191.624 84.768C192.456 85.088 193.304 85.248 194.168 85.248C195.352 85.248 196.44 85.088 197.432 84.768C198.424 84.416 199.208 84.016 199.784 83.568V68.976Z" fill="#FFAA00"/>
<path d="M233.966 77.52C233.966 79.504 233.678 81.296 233.102 82.896C232.526 84.496 231.71 85.872 230.654 87.024C229.63 88.176 228.398 89.072 226.958 89.712C225.518 90.32 223.95 90.624 222.254 90.624C220.558 90.624 218.99 90.32 217.55 89.712C216.11 89.072 214.862 88.176 213.806 87.024C212.782 85.872 211.982 84.496 211.406 82.896C210.83 81.296 210.542 79.504 210.542 77.52C210.542 75.568 210.83 73.792 211.406 72.192C211.982 70.56 212.782 69.168 213.806 68.016C214.862 66.864 216.11 65.984 217.55 65.376C218.99 64.736 220.558 64.416 222.254 64.416C223.95 64.416 225.518 64.736 226.958 65.376C228.398 65.984 229.63 66.864 230.654 68.016C231.71 69.168 232.526 70.56 233.102 72.192C233.678 73.792 233.966 75.568 233.966 77.52ZM229.31 77.52C229.31 74.704 228.67 72.48 227.39 70.848C226.142 69.184 224.43 68.352 222.254 68.352C220.078 68.352 218.35 69.184 217.07 70.848C215.822 72.48 215.198 74.704 215.198 77.52C215.198 80.336 215.822 82.576 217.07 84.24C218.35 85.872 220.078 86.688 222.254 86.688C224.43 86.688 226.142 85.872 227.39 84.24C228.67 82.576 229.31 80.336 229.31 77.52Z" fill="#FFAA00"/>
<path d="M246.054 86.784C247.878 86.784 249.222 86.544 250.086 86.064C250.982 85.584 251.43 84.816 251.43 83.76C251.43 82.672 250.998 81.808 250.134 81.168C249.27 80.528 247.846 79.808 245.862 79.008C244.902 78.624 243.974 78.24 243.078 77.856C242.214 77.44 241.462 76.96 240.822 76.416C240.182 75.872 239.67 75.216 239.286 74.448C238.902 73.68 238.71 72.736 238.71 71.616C238.71 69.408 239.526 67.664 241.158 66.384C242.79 65.072 245.014 64.416 247.83 64.416C248.534 64.416 249.238 64.464 249.942 64.56C250.646 64.624 251.302 64.72 251.91 64.848C252.518 64.944 253.046 65.056 253.494 65.184C253.974 65.312 254.342 65.424 254.598 65.52L253.782 69.36C253.302 69.104 252.55 68.848 251.526 68.592C250.502 68.304 249.27 68.16 247.83 68.16C246.582 68.16 245.494 68.416 244.566 68.928C243.638 69.408 243.174 70.176 243.174 71.232C243.174 71.776 243.27 72.256 243.462 72.672C243.686 73.088 244.006 73.472 244.422 73.824C244.87 74.144 245.414 74.448 246.054 74.736C246.694 75.024 247.462 75.328 248.358 75.648C249.542 76.096 250.598 76.544 251.526 76.992C252.454 77.408 253.238 77.904 253.878 78.48C254.55 79.056 255.062 79.76 255.414 80.592C255.766 81.392 255.942 82.384 255.942 83.568C255.942 85.872 255.078 87.616 253.35 88.8C251.654 89.984 249.222 90.576 246.054 90.576C243.846 90.576 242.118 90.384 240.87 90C239.622 89.648 238.774 89.376 238.326 89.184L239.142 85.344C239.654 85.536 240.47 85.824 241.59 86.208C242.71 86.592 244.198 86.784 246.054 86.784Z" fill="#FFAA00"/>
<path d="M135.928 126.344C138.36 126.344 139.576 125.512 139.576 123.848C139.576 123.336 139.464 122.904 139.24 122.552C139.032 122.184 138.744 121.872 138.376 121.616C138.008 121.344 137.584 121.112 137.104 120.92C136.64 120.728 136.144 120.536 135.616 120.344C135.008 120.136 134.432 119.904 133.888 119.648C133.344 119.376 132.872 119.064 132.472 118.712C132.072 118.344 131.752 117.912 131.512 117.416C131.288 116.92 131.176 116.32 131.176 115.616C131.176 114.16 131.672 113.024 132.664 112.208C133.656 111.392 135.024 110.984 136.768 110.984C137.776 110.984 138.688 111.096 139.504 111.32C140.336 111.528 140.944 111.76 141.328 112.016L140.584 113.912C140.248 113.704 139.744 113.504 139.072 113.312C138.416 113.104 137.648 113 136.768 113C136.32 113 135.904 113.048 135.52 113.144C135.136 113.24 134.8 113.384 134.512 113.576C134.224 113.768 133.992 114.016 133.816 114.32C133.656 114.608 133.576 114.952 133.576 115.352C133.576 115.8 133.664 116.176 133.84 116.48C134.016 116.784 134.264 117.056 134.584 117.296C134.904 117.52 135.272 117.728 135.688 117.92C136.12 118.112 136.592 118.304 137.104 118.496C137.824 118.784 138.48 119.072 139.072 119.36C139.68 119.648 140.2 119.992 140.632 120.392C141.08 120.792 141.424 121.272 141.664 121.832C141.904 122.376 142.024 123.04 142.024 123.824C142.024 125.28 141.488 126.4 140.416 127.184C139.36 127.968 137.864 128.36 135.928 128.36C135.272 128.36 134.664 128.312 134.104 128.216C133.56 128.136 133.072 128.04 132.64 127.928C132.208 127.8 131.832 127.672 131.512 127.544C131.208 127.4 130.968 127.28 130.792 127.184L131.488 125.264C131.856 125.472 132.416 125.704 133.168 125.96C133.92 126.216 134.84 126.344 135.928 126.344Z" fill="white"/>
<path d="M143.997 121.784C143.997 120.68 144.157 119.72 144.477 118.904C144.797 118.072 145.221 117.384 145.749 116.84C146.277 116.296 146.885 115.888 147.573 115.616C148.261 115.344 148.965 115.208 149.685 115.208C151.365 115.208 152.653 115.736 153.549 116.792C154.445 117.832 154.893 119.424 154.893 121.568C154.893 121.664 154.893 121.792 154.893 121.952C154.893 122.096 154.885 122.232 154.869 122.36H146.325C146.421 123.656 146.797 124.64 147.453 125.312C148.109 125.984 149.133 126.32 150.525 126.32C151.309 126.32 151.965 126.256 152.493 126.128C153.037 125.984 153.445 125.848 153.717 125.72L154.029 127.592C153.757 127.736 153.277 127.888 152.589 128.048C151.917 128.208 151.149 128.288 150.285 128.288C149.197 128.288 148.253 128.128 147.453 127.808C146.669 127.472 146.021 127.016 145.509 126.44C144.997 125.864 144.613 125.184 144.357 124.4C144.117 123.6 143.997 122.728 143.997 121.784ZM152.565 120.56C152.581 119.552 152.325 118.728 151.797 118.088C151.285 117.432 150.573 117.104 149.661 117.104C149.149 117.104 148.693 117.208 148.293 117.416C147.909 117.608 147.581 117.864 147.309 118.184C147.037 118.504 146.821 118.872 146.661 119.288C146.517 119.704 146.421 120.128 146.373 120.56H152.565Z" fill="white"/>
<path d="M163.524 128.288C162.516 128.288 161.628 128.128 160.86 127.808C160.108 127.488 159.468 127.04 158.94 126.464C158.428 125.888 158.044 125.208 157.788 124.424C157.532 123.624 157.404 122.744 157.404 121.784C157.404 120.824 157.54 119.944 157.812 119.144C158.1 118.344 158.5 117.656 159.012 117.08C159.524 116.488 160.148 116.032 160.884 115.712C161.636 115.376 162.468 115.208 163.38 115.208C163.94 115.208 164.5 115.256 165.06 115.352C165.62 115.448 166.156 115.6 166.668 115.808L166.164 117.704C165.828 117.544 165.436 117.416 164.988 117.32C164.556 117.224 164.092 117.176 163.596 117.176C162.348 117.176 161.388 117.568 160.716 118.352C160.06 119.136 159.732 120.28 159.732 121.784C159.732 122.456 159.804 123.072 159.948 123.632C160.108 124.192 160.348 124.672 160.668 125.072C161.004 125.472 161.428 125.784 161.94 126.008C162.452 126.216 163.076 126.32 163.812 126.32C164.404 126.32 164.94 126.264 165.42 126.152C165.9 126.04 166.276 125.92 166.548 125.792L166.86 127.664C166.732 127.744 166.548 127.824 166.308 127.904C166.068 127.968 165.796 128.024 165.492 128.072C165.188 128.136 164.86 128.184 164.508 128.216C164.172 128.264 163.844 128.288 163.524 128.288Z" fill="white"/>
<path d="M179.192 127.64C178.68 127.768 178 127.904 177.152 128.048C176.32 128.192 175.352 128.264 174.248 128.264C173.288 128.264 172.48 128.128 171.824 127.856C171.168 127.568 170.64 127.168 170.24 126.656C169.84 126.144 169.552 125.544 169.376 124.856C169.2 124.152 169.112 123.376 169.112 122.528V115.52H171.344V122.048C171.344 123.568 171.584 124.656 172.064 125.312C172.544 125.968 173.352 126.296 174.488 126.296C174.728 126.296 174.976 126.288 175.232 126.272C175.488 126.256 175.728 126.24 175.952 126.224C176.176 126.192 176.376 126.168 176.552 126.152C176.744 126.12 176.88 126.088 176.96 126.056V115.52H179.192V127.64Z" fill="white"/>
<path d="M187.645 115.256C187.837 115.256 188.053 115.272 188.293 115.304C188.549 115.32 188.797 115.352 189.037 115.4C189.277 115.432 189.493 115.472 189.685 115.52C189.893 115.552 190.045 115.584 190.141 115.616L189.757 117.56C189.581 117.496 189.285 117.424 188.869 117.344C188.469 117.248 187.949 117.2 187.309 117.2C186.893 117.2 186.477 117.248 186.061 117.344C185.661 117.424 185.397 117.48 185.269 117.512V128H183.037V116.048C183.565 115.856 184.221 115.68 185.005 115.52C185.789 115.344 186.669 115.256 187.645 115.256Z" fill="white"/>
<path d="M194.527 128H192.295V115.52H194.527V128ZM193.399 113.264C192.999 113.264 192.655 113.136 192.367 112.88C192.095 112.608 191.959 112.248 191.959 111.8C191.959 111.352 192.095 111 192.367 110.744C192.655 110.472 192.999 110.336 193.399 110.336C193.799 110.336 194.135 110.472 194.407 110.744C194.695 111 194.839 111.352 194.839 111.8C194.839 112.248 194.695 112.608 194.407 112.88C194.135 113.136 193.799 113.264 193.399 113.264Z" fill="white"/>
<path d="M200.453 115.52H205.181V117.392H200.453V123.152C200.453 123.776 200.501 124.296 200.597 124.712C200.693 125.112 200.837 125.432 201.029 125.672C201.221 125.896 201.461 126.056 201.749 126.152C202.037 126.248 202.373 126.296 202.757 126.296C203.429 126.296 203.965 126.224 204.365 126.08C204.781 125.92 205.069 125.808 205.229 125.744L205.661 127.592C205.437 127.704 205.045 127.84 204.485 128C203.925 128.176 203.285 128.264 202.565 128.264C201.717 128.264 201.013 128.16 200.453 127.952C199.909 127.728 199.469 127.4 199.133 126.968C198.797 126.536 198.557 126.008 198.413 125.384C198.285 124.744 198.221 124.008 198.221 123.176V112.04L200.453 111.656V115.52Z" fill="white"/>
<path d="M206.558 130.328C206.734 130.408 206.958 130.48 207.23 130.544C207.518 130.624 207.798 130.664 208.07 130.664C208.95 130.664 209.638 130.464 210.134 130.064C210.63 129.68 211.078 129.048 211.478 128.168C210.47 126.248 209.526 124.216 208.646 122.072C207.782 119.912 207.062 117.728 206.486 115.52H208.886C209.062 116.24 209.27 117.016 209.51 117.848C209.766 118.68 210.046 119.536 210.35 120.416C210.654 121.296 210.982 122.176 211.334 123.056C211.686 123.936 212.054 124.784 212.438 125.6C213.046 123.92 213.574 122.256 214.022 120.608C214.47 118.96 214.894 117.264 215.294 115.52H217.598C217.022 117.872 216.382 120.136 215.678 122.312C214.974 124.472 214.214 126.496 213.398 128.384C213.078 129.104 212.742 129.72 212.39 130.232C212.054 130.76 211.678 131.192 211.262 131.528C210.846 131.864 210.374 132.112 209.846 132.272C209.334 132.432 208.75 132.512 208.094 132.512C207.918 132.512 207.734 132.496 207.542 132.464C207.35 132.448 207.158 132.416 206.966 132.368C206.79 132.336 206.622 132.296 206.462 132.248C206.318 132.2 206.214 132.16 206.15 132.128L206.558 130.328Z" fill="white"/>
<path d="M0 55C0 49.4772 4.47715 45 10 45H105C110.523 45 115 49.4772 115 55V125C115 130.523 110.523 135 105 135H10C4.47715 135 0 130.523 0 125V55Z" fill="#FFAA00"/>
<path d="M18 41.5C16.8954 41.5 15.995 40.6039 16.0481 39.5007C16.5435 29.2219 20.8449 19.4653 28.1551 12.1551C35.9378 4.37231 46.4935 1.18082e-06 57.5 0C68.5065 -1.18082e-06 79.0622 4.37231 86.8449 12.1551C94.1551 19.4653 98.4565 29.2219 98.9519 39.5006C99.005 40.6039 98.1046 41.5 97 41.5L86.475 41.5C85.3704 41.5 84.4827 40.6033 84.4009 39.5018C83.924 33.0782 81.1599 27.0115 76.5742 22.4258C71.5154 17.367 64.6542 14.525 57.5 14.525C50.3458 14.525 43.4846 17.367 38.4258 22.4258C33.8401 27.0115 31.0759 33.0783 30.5991 39.5018C30.5173 40.6033 29.6296 41.5 28.525 41.5H18Z" fill="#ADADAD"/>
<path d="M35.4959 118.9C33.6726 118.9 32.1509 118.262 30.9306 116.985C29.7103 115.708 29.1001 114.174 29.1001 112.381C29.1001 110.589 29.7267 109.07 30.9798 107.825C32.233 106.58 33.7394 105.957 35.4991 105.957C37.2996 105.957 38.8403 106.568 40.1213 107.789C41.4023 109.011 42.0428 110.533 42.0428 112.356C42.0428 114.18 41.4018 115.726 40.1197 116.996C38.8375 118.265 37.2963 118.9 35.4959 118.9ZM80.6099 118.9C79.1076 118.9 77.8361 118.354 76.7955 117.261C75.7548 116.169 75.1534 114.879 74.9912 113.39C74.3256 108.09 72.8577 103.139 70.5876 98.5379C68.3175 93.9368 65.3848 89.8523 61.7897 86.2844C58.2079 82.6892 54.1076 79.7566 49.4888 77.4864C44.8699 75.2163 39.9103 73.7484 34.61 73.0828C33.1216 72.9226 31.8311 72.328 30.7387 71.299C29.6463 70.27 29.1001 68.9911 29.1001 67.4624C29.1001 65.9583 29.6486 64.7009 30.7457 63.6901C31.8427 62.6793 33.1614 62.2479 34.7017 62.3958C41.4694 63.0861 47.7684 64.8426 53.5988 67.6654C59.4292 70.4881 64.6371 74.1922 69.2225 78.7776C73.8079 83.363 77.512 88.5709 80.3347 94.4013C83.1575 100.232 84.914 106.531 85.6043 113.298C85.7522 114.839 85.3324 116.157 84.3448 117.254C83.3572 118.351 82.1123 118.9 80.6099 118.9ZM59.0815 118.9C57.6335 118.9 56.3694 118.407 55.2892 117.422C54.209 116.437 53.5037 115.216 53.1735 113.76C52.6558 111.393 51.8414 109.174 50.7303 107.104C49.6192 105.033 48.2149 103.159 46.5173 101.483C44.8409 99.7852 42.9673 98.3809 40.8965 97.2698C38.8256 96.1587 36.6069 95.3443 34.2402 94.8265C32.7836 94.4961 31.5628 93.8066 30.5777 92.7579C29.5926 91.7093 29.1001 90.4567 29.1001 89.0002C29.1001 87.4855 29.6363 86.2412 30.7087 85.2674C31.7811 84.2936 33.0199 83.9177 34.4251 84.1396C38.2216 84.7066 41.7872 85.8363 45.1218 87.5288C48.4564 89.2212 51.4362 91.3827 54.061 94.013C56.6914 96.624 58.8528 99.5879 60.5453 102.905C62.2377 106.222 63.3675 109.778 63.9345 113.575C64.1563 114.98 63.7775 116.219 62.798 117.291C61.8185 118.364 60.5796 118.9 59.0815 118.9Z" fill="#1C1B1F"/>
</svg>
