<svg width="260" height="135" viewBox="0 0 260 135" fill="none" xmlns="http://www.w3.org/2000/svg">
<path d="M156.064 90C155.616 88.688 155.152 87.392 154.672 86.112C154.192 84.832 153.728 83.52 153.28 82.176H139.264C138.816 83.52 138.352 84.848 137.872 86.16C137.424 87.44 136.976 88.72 136.528 90H130.24C131.488 86.448 132.672 83.168 133.792 80.16C134.912 77.152 136 74.304 137.056 71.616C138.144 68.928 139.216 66.368 140.272 63.936C141.328 61.504 142.416 59.104 143.536 56.736H149.248C150.368 59.104 151.456 61.504 152.512 63.936C153.568 66.368 154.624 68.928 155.68 71.616C156.768 74.304 157.872 77.152 158.992 80.16C160.144 83.168 161.344 86.448 162.592 90H156.064ZM146.272 63.168C145.536 64.864 144.688 66.928 143.728 69.36C142.8 71.792 141.824 74.432 140.8 77.28H151.744C150.72 74.432 149.728 71.776 148.768 69.312C147.808 66.848 146.976 64.8 146.272 63.168Z" fill="#FFAA00"/>
<path d="M180.812 70.128C180.333 69.968 179.66 69.808 178.796 69.648C177.964 69.456 176.988 69.36 175.868 69.36C175.229 69.36 174.54 69.424 173.805 69.552C173.101 69.68 172.604 69.792 172.316 69.888V90H166.508V66.096C167.628 65.68 169.02 65.296 170.684 64.944C172.38 64.56 174.253 64.368 176.301 64.368C176.685 64.368 177.133 64.4 177.645 64.464C178.156 64.496 178.669 64.56 179.18 64.656C179.692 64.72 180.189 64.816 180.669 64.944C181.148 65.04 181.533 65.136 181.82 65.232L180.812 70.128Z" fill="#FFAA00"/>
<path d="M190.428 76.8C190.428 79.264 190.956 81.072 192.012 82.224C193.1 83.344 194.492 83.904 196.188 83.904C197.116 83.904 197.98 83.776 198.78 83.52C199.612 83.264 200.284 82.96 200.796 82.608V69.6C200.38 69.504 199.868 69.424 199.26 69.36C198.652 69.264 197.884 69.216 196.956 69.216C194.844 69.216 193.228 69.92 192.108 71.328C190.988 72.704 190.428 74.528 190.428 76.8ZM206.604 87.456C206.604 91.456 205.58 94.384 203.532 96.24C201.516 98.096 198.412 99.024 194.22 99.024C192.684 99.024 191.18 98.896 189.708 98.64C188.268 98.384 186.956 98.048 185.772 97.632L186.828 92.688C187.82 93.104 188.94 93.44 190.188 93.696C191.468 93.952 192.844 94.08 194.316 94.08C196.652 94.08 198.316 93.6 199.308 92.64C200.3 91.68 200.796 90.256 200.796 88.368V87.408C200.22 87.696 199.452 87.984 198.492 88.272C197.564 88.56 196.492 88.704 195.276 88.704C193.676 88.704 192.204 88.448 190.86 87.936C189.548 87.424 188.412 86.672 187.452 85.68C186.524 84.688 185.788 83.456 185.244 81.984C184.732 80.48 184.476 78.752 184.476 76.8C184.476 74.976 184.748 73.296 185.292 71.76C185.868 70.224 186.684 68.912 187.74 67.824C188.828 66.736 190.14 65.888 191.676 65.28C193.212 64.672 194.956 64.368 196.908 64.368C198.796 64.368 200.588 64.512 202.284 64.8C203.98 65.088 205.42 65.392 206.604 65.712V87.456Z" fill="#FFAA00"/>
<path d="M236.697 77.424C236.697 79.408 236.409 81.216 235.833 82.848C235.257 84.48 234.441 85.872 233.385 87.024C232.329 88.176 231.049 89.072 229.545 89.712C228.073 90.352 226.441 90.672 224.649 90.672C222.857 90.672 221.225 90.352 219.753 89.712C218.281 89.072 217.017 88.176 215.961 87.024C214.905 85.872 214.073 84.48 213.465 82.848C212.889 81.216 212.601 79.408 212.601 77.424C212.601 75.44 212.889 73.648 213.465 72.048C214.073 70.416 214.905 69.024 215.961 67.872C217.049 66.72 218.329 65.84 219.801 65.232C221.273 64.592 222.889 64.272 224.649 64.272C226.409 64.272 228.025 64.592 229.497 65.232C231.001 65.84 232.281 66.72 233.337 67.872C234.393 69.024 235.209 70.416 235.785 72.048C236.393 73.648 236.697 75.44 236.697 77.424ZM230.745 77.424C230.745 74.928 230.201 72.96 229.113 71.52C228.057 70.048 226.569 69.312 224.649 69.312C222.729 69.312 221.225 70.048 220.137 71.52C219.081 72.96 218.553 74.928 218.553 77.424C218.553 79.952 219.081 81.952 220.137 83.424C221.225 84.896 222.729 85.632 224.649 85.632C226.569 85.632 228.057 84.896 229.113 83.424C230.201 81.952 230.745 79.952 230.745 77.424Z" fill="#FFAA00"/>
<path d="M248.968 85.824C250.504 85.824 251.624 85.648 252.328 85.296C253.032 84.912 253.384 84.272 253.384 83.376C253.384 82.544 253 81.856 252.232 81.312C251.496 80.768 250.264 80.176 248.536 79.536C247.48 79.152 246.504 78.752 245.608 78.336C244.744 77.888 243.992 77.376 243.352 76.8C242.712 76.224 242.2 75.536 241.816 74.736C241.464 73.904 241.288 72.896 241.288 71.712C241.288 69.408 242.136 67.6 243.832 66.288C245.528 64.944 247.832 64.272 250.744 64.272C252.216 64.272 253.624 64.416 254.968 64.704C256.312 64.96 257.32 65.216 257.992 65.472L256.936 70.176C256.296 69.888 255.48 69.632 254.488 69.408C253.496 69.152 252.344 69.024 251.032 69.024C249.848 69.024 248.888 69.232 248.152 69.648C247.416 70.032 247.048 70.64 247.048 71.472C247.048 71.888 247.112 72.256 247.24 72.576C247.4 72.896 247.656 73.2 248.008 73.488C248.36 73.744 248.824 74.016 249.4 74.304C249.976 74.56 250.68 74.832 251.512 75.12C252.888 75.632 254.056 76.144 255.016 76.656C255.976 77.136 256.76 77.696 257.368 78.336C258.008 78.944 258.472 79.648 258.76 80.448C259.048 81.248 259.192 82.208 259.192 83.328C259.192 85.728 258.296 87.552 256.504 88.8C254.744 90.016 252.216 90.624 248.92 90.624C246.712 90.624 244.936 90.432 243.592 90.048C242.248 89.696 241.304 89.408 240.76 89.184L241.768 84.336C242.632 84.688 243.656 85.024 244.84 85.344C246.056 85.664 247.432 85.824 248.968 85.824Z" fill="#FFAA00"/>
<path d="M136.928 126.344C139.36 126.344 140.576 125.512 140.576 123.848C140.576 123.336 140.464 122.904 140.24 122.552C140.032 122.184 139.744 121.872 139.376 121.616C139.008 121.344 138.584 121.112 138.104 120.92C137.64 120.728 137.144 120.536 136.616 120.344C136.008 120.136 135.432 119.904 134.888 119.648C134.344 119.376 133.872 119.064 133.472 118.712C133.072 118.344 132.752 117.912 132.512 117.416C132.288 116.92 132.176 116.32 132.176 115.616C132.176 114.16 132.672 113.024 133.664 112.208C134.656 111.392 136.024 110.984 137.768 110.984C138.776 110.984 139.688 111.096 140.504 111.32C141.336 111.528 141.944 111.76 142.328 112.016L141.584 113.912C141.248 113.704 140.744 113.504 140.072 113.312C139.416 113.104 138.648 113 137.768 113C137.32 113 136.904 113.048 136.52 113.144C136.136 113.24 135.8 113.384 135.512 113.576C135.224 113.768 134.992 114.016 134.816 114.32C134.656 114.608 134.576 114.952 134.576 115.352C134.576 115.8 134.664 116.176 134.84 116.48C135.016 116.784 135.264 117.056 135.584 117.296C135.904 117.52 136.272 117.728 136.688 117.92C137.12 118.112 137.592 118.304 138.104 118.496C138.824 118.784 139.48 119.072 140.072 119.36C140.68 119.648 141.2 119.992 141.632 120.392C142.08 120.792 142.424 121.272 142.664 121.832C142.904 122.376 143.024 123.04 143.024 123.824C143.024 125.28 142.488 126.4 141.416 127.184C140.36 127.968 138.864 128.36 136.928 128.36C136.272 128.36 135.664 128.312 135.104 128.216C134.56 128.136 134.072 128.04 133.64 127.928C133.208 127.8 132.832 127.672 132.512 127.544C132.208 127.4 131.968 127.28 131.792 127.184L132.488 125.264C132.856 125.472 133.416 125.704 134.168 125.96C134.92 126.216 135.84 126.344 136.928 126.344Z" fill="#1C1B1F"/>
<path d="M144.997 121.784C144.997 120.68 145.157 119.72 145.477 118.904C145.797 118.072 146.221 117.384 146.749 116.84C147.277 116.296 147.885 115.888 148.573 115.616C149.261 115.344 149.965 115.208 150.685 115.208C152.365 115.208 153.653 115.736 154.549 116.792C155.445 117.832 155.893 119.424 155.893 121.568C155.893 121.664 155.893 121.792 155.893 121.952C155.893 122.096 155.885 122.232 155.869 122.36H147.325C147.421 123.656 147.797 124.64 148.453 125.312C149.109 125.984 150.133 126.32 151.525 126.32C152.309 126.32 152.965 126.256 153.493 126.128C154.037 125.984 154.445 125.848 154.717 125.72L155.029 127.592C154.757 127.736 154.277 127.888 153.589 128.048C152.917 128.208 152.149 128.288 151.285 128.288C150.197 128.288 149.253 128.128 148.453 127.808C147.669 127.472 147.021 127.016 146.509 126.44C145.997 125.864 145.613 125.184 145.357 124.4C145.117 123.6 144.997 122.728 144.997 121.784ZM153.565 120.56C153.581 119.552 153.325 118.728 152.797 118.088C152.285 117.432 151.573 117.104 150.661 117.104C150.149 117.104 149.693 117.208 149.293 117.416C148.909 117.608 148.581 117.864 148.309 118.184C148.037 118.504 147.821 118.872 147.661 119.288C147.517 119.704 147.421 120.128 147.373 120.56H153.565Z" fill="#1C1B1F"/>
<path d="M164.524 128.288C163.516 128.288 162.628 128.128 161.86 127.808C161.108 127.488 160.468 127.04 159.94 126.464C159.428 125.888 159.044 125.208 158.788 124.424C158.532 123.624 158.404 122.744 158.404 121.784C158.404 120.824 158.54 119.944 158.812 119.144C159.1 118.344 159.5 117.656 160.012 117.08C160.524 116.488 161.148 116.032 161.884 115.712C162.636 115.376 163.468 115.208 164.38 115.208C164.94 115.208 165.5 115.256 166.06 115.352C166.62 115.448 167.156 115.6 167.668 115.808L167.164 117.704C166.828 117.544 166.436 117.416 165.988 117.32C165.556 117.224 165.092 117.176 164.596 117.176C163.348 117.176 162.388 117.568 161.716 118.352C161.06 119.136 160.732 120.28 160.732 121.784C160.732 122.456 160.804 123.072 160.948 123.632C161.108 124.192 161.348 124.672 161.668 125.072C162.004 125.472 162.428 125.784 162.94 126.008C163.452 126.216 164.076 126.32 164.812 126.32C165.404 126.32 165.94 126.264 166.42 126.152C166.9 126.04 167.276 125.92 167.548 125.792L167.86 127.664C167.732 127.744 167.548 127.824 167.308 127.904C167.068 127.968 166.796 128.024 166.492 128.072C166.188 128.136 165.86 128.184 165.508 128.216C165.172 128.264 164.844 128.288 164.524 128.288Z" fill="#1C1B1F"/>
<path d="M180.192 127.64C179.68 127.768 179 127.904 178.152 128.048C177.32 128.192 176.352 128.264 175.248 128.264C174.288 128.264 173.48 128.128 172.824 127.856C172.168 127.568 171.64 127.168 171.24 126.656C170.84 126.144 170.552 125.544 170.376 124.856C170.2 124.152 170.112 123.376 170.112 122.528V115.52H172.344V122.048C172.344 123.568 172.584 124.656 173.064 125.312C173.544 125.968 174.352 126.296 175.488 126.296C175.728 126.296 175.976 126.288 176.232 126.272C176.488 126.256 176.728 126.24 176.952 126.224C177.176 126.192 177.376 126.168 177.552 126.152C177.744 126.12 177.88 126.088 177.96 126.056V115.52H180.192V127.64Z" fill="#1C1B1F"/>
<path d="M188.645 115.256C188.837 115.256 189.053 115.272 189.293 115.304C189.549 115.32 189.797 115.352 190.037 115.4C190.277 115.432 190.493 115.472 190.685 115.52C190.893 115.552 191.045 115.584 191.141 115.616L190.757 117.56C190.581 117.496 190.285 117.424 189.869 117.344C189.469 117.248 188.949 117.2 188.309 117.2C187.893 117.2 187.477 117.248 187.061 117.344C186.661 117.424 186.397 117.48 186.269 117.512V128H184.037V116.048C184.565 115.856 185.221 115.68 186.005 115.52C186.789 115.344 187.669 115.256 188.645 115.256Z" fill="#1C1B1F"/>
<path d="M195.527 128H193.295V115.52H195.527V128ZM194.399 113.264C193.999 113.264 193.655 113.136 193.367 112.88C193.095 112.608 192.959 112.248 192.959 111.8C192.959 111.352 193.095 111 193.367 110.744C193.655 110.472 193.999 110.336 194.399 110.336C194.799 110.336 195.135 110.472 195.407 110.744C195.695 111 195.839 111.352 195.839 111.8C195.839 112.248 195.695 112.608 195.407 112.88C195.135 113.136 194.799 113.264 194.399 113.264Z" fill="#1C1B1F"/>
<path d="M201.453 115.52H206.181V117.392H201.453V123.152C201.453 123.776 201.501 124.296 201.597 124.712C201.693 125.112 201.837 125.432 202.029 125.672C202.221 125.896 202.461 126.056 202.749 126.152C203.037 126.248 203.373 126.296 203.757 126.296C204.429 126.296 204.965 126.224 205.365 126.08C205.781 125.92 206.069 125.808 206.229 125.744L206.661 127.592C206.437 127.704 206.045 127.84 205.485 128C204.925 128.176 204.285 128.264 203.565 128.264C202.717 128.264 202.013 128.16 201.453 127.952C200.909 127.728 200.469 127.4 200.133 126.968C199.797 126.536 199.557 126.008 199.413 125.384C199.285 124.744 199.221 124.008 199.221 123.176V112.04L201.453 111.656V115.52Z" fill="#1C1B1F"/>
<path d="M207.558 130.328C207.734 130.408 207.958 130.48 208.23 130.544C208.518 130.624 208.798 130.664 209.07 130.664C209.95 130.664 210.638 130.464 211.134 130.064C211.63 129.68 212.078 129.048 212.478 128.168C211.47 126.248 210.526 124.216 209.646 122.072C208.782 119.912 208.062 117.728 207.486 115.52H209.886C210.062 116.24 210.27 117.016 210.51 117.848C210.766 118.68 211.046 119.536 211.35 120.416C211.654 121.296 211.982 122.176 212.334 123.056C212.686 123.936 213.054 124.784 213.438 125.6C214.046 123.92 214.574 122.256 215.022 120.608C215.47 118.96 215.894 117.264 216.294 115.52H218.598C218.022 117.872 217.382 120.136 216.678 122.312C215.974 124.472 215.214 126.496 214.398 128.384C214.078 129.104 213.742 129.72 213.39 130.232C213.054 130.76 212.678 131.192 212.262 131.528C211.846 131.864 211.374 132.112 210.846 132.272C210.334 132.432 209.75 132.512 209.094 132.512C208.918 132.512 208.734 132.496 208.542 132.464C208.35 132.448 208.158 132.416 207.966 132.368C207.79 132.336 207.622 132.296 207.462 132.248C207.318 132.2 207.214 132.16 207.15 132.128L207.558 130.328Z" fill="#1C1B1F"/>
<path d="M0 55C0 49.4772 4.47715 45 10 45H105C110.523 45 115 49.4772 115 55V125C115 130.523 110.523 135 105 135H10C4.47715 135 0 130.523 0 125V55Z" fill="#FFAA00"/>
<path d="M18 41.5C16.8954 41.5 15.995 40.6039 16.0481 39.5007C16.5435 29.2219 20.8449 19.4653 28.1551 12.1551C35.9378 4.37231 46.4935 1.18082e-06 57.5 0C68.5065 -1.18082e-06 79.0622 4.37231 86.8449 12.1551C94.1551 19.4653 98.4565 29.2219 98.9519 39.5006C99.005 40.6039 98.1046 41.5 97 41.5L86.475 41.5C85.3704 41.5 84.4827 40.6033 84.4009 39.5018C83.924 33.0782 81.1599 27.0115 76.5742 22.4258C71.5154 17.367 64.6542 14.525 57.5 14.525C50.3458 14.525 43.4846 17.367 38.4258 22.4258C33.8401 27.0115 31.0759 33.0783 30.5991 39.5018C30.5173 40.6033 29.6296 41.5 28.525 41.5H18Z" fill="#1C1B1F"/>
<path d="M35.4959 118.9C33.6726 118.9 32.1509 118.262 30.9306 116.985C29.7103 115.708 29.1001 114.174 29.1001 112.381C29.1001 110.589 29.7267 109.07 30.9798 107.825C32.233 106.58 33.7394 105.957 35.4991 105.957C37.2996 105.957 38.8403 106.568 40.1213 107.789C41.4023 109.011 42.0428 110.533 42.0428 112.356C42.0428 114.18 41.4018 115.726 40.1197 116.996C38.8375 118.265 37.2963 118.9 35.4959 118.9ZM80.6099 118.9C79.1076 118.9 77.8361 118.354 76.7955 117.261C75.7548 116.169 75.1534 114.879 74.9912 113.39C74.3256 108.09 72.8577 103.139 70.5876 98.5379C68.3175 93.9368 65.3848 89.8523 61.7897 86.2844C58.2079 82.6892 54.1076 79.7566 49.4888 77.4864C44.8699 75.2163 39.9103 73.7484 34.61 73.0828C33.1216 72.9226 31.8311 72.328 30.7387 71.299C29.6463 70.27 29.1001 68.9911 29.1001 67.4624C29.1001 65.9583 29.6486 64.7009 30.7457 63.6901C31.8427 62.6793 33.1614 62.2479 34.7017 62.3958C41.4694 63.0861 47.7684 64.8426 53.5988 67.6654C59.4292 70.4881 64.6371 74.1922 69.2225 78.7776C73.8079 83.363 77.512 88.5709 80.3347 94.4013C83.1575 100.232 84.914 106.531 85.6043 113.298C85.7522 114.839 85.3324 116.157 84.3448 117.254C83.3572 118.351 82.1123 118.9 80.6099 118.9ZM59.0815 118.9C57.6335 118.9 56.3694 118.407 55.2892 117.422C54.209 116.437 53.5037 115.216 53.1735 113.76C52.6558 111.393 51.8414 109.174 50.7303 107.104C49.6192 105.033 48.2149 103.159 46.5173 101.483C44.8409 99.7852 42.9673 98.3809 40.8965 97.2698C38.8256 96.1587 36.6069 95.3443 34.2402 94.8265C32.7836 94.4961 31.5628 93.8066 30.5777 92.7579C29.5926 91.7093 29.1001 90.4567 29.1001 89.0002C29.1001 87.4855 29.6363 86.2412 30.7087 85.2674C31.7811 84.2936 33.0199 83.9177 34.4251 84.1396C38.2216 84.7066 41.7872 85.8363 45.1218 87.5288C48.4564 89.2212 51.4362 91.3827 54.061 94.013C56.6914 96.624 58.8528 99.5879 60.5453 102.905C62.2377 106.222 63.3675 109.778 63.9345 113.575C64.1563 114.98 63.7775 116.219 62.798 117.291C61.8185 118.364 60.5796 118.9 59.0815 118.9Z" fill="#1C1B1F"/>
</svg>
